<?xml version="1.0" encoding="UTF-8" standalone="no"?>
<svg
   xmlns:dc="http://purl.org/dc/elements/1.1/"
   xmlns:cc="http://creativecommons.org/ns#"
   xmlns:rdf="http://www.w3.org/1999/02/22-rdf-syntax-ns#"
   xmlns:svg="http://www.w3.org/2000/svg"
   xmlns="http://www.w3.org/2000/svg"
   viewBox="0 0 1333.3333 1333.3333"
   height="1333.3333"
   width="1333.3333"
   xml:space="preserve"
   id="svg2"
   version="1.1"><metadata
     id="metadata8"><rdf:RDF><cc:Work
         rdf:about=""><dc:format>image/svg+xml</dc:format><dc:type
           rdf:resource="http://purl.org/dc/dcmitype/StillImage" /><dc:title></dc:title></cc:Work></rdf:RDF></metadata><defs
     id="defs6"><clipPath
       id="clipPath18"
       clipPathUnits="userSpaceOnUse"><path
         id="path16"
         d="M 0,1000 H 1000 V 0 H 0 Z" /></clipPath></defs><g
     transform="matrix(1.3333333,0,0,-1.3333333,0,1333.3333)"
     id="g10"><g
       id="g12"><g
         clip-path="url(#clipPath18)"
         id="g14"><g
           transform="translate(142.9014,542.3521)"
           id="g20"><path
             id="path22"
             style="fill:#f29c61;fill-opacity:1;fill-rule:nonzero;stroke:none"
             d="m 0,0 237.265,-191.509 c 0,0 -106.155,-54.976 -192.694,38.371 C -41.968,-59.791 0,0 0,0" /></g><g
           transform="translate(475.2236,501.1606)"
           id="g24"><path
             id="path26"
             style="fill:none;stroke:#000000;stroke-width:25;stroke-linecap:butt;stroke-linejoin:miter;stroke-miterlimit:10;stroke-dasharray:none;stroke-opacity:1"
             d="m 0,0 c 0,-94.089 -76.274,-170.364 -170.363,-170.364 -94.089,0 -170.363,76.275 -170.363,170.364 0,94.089 76.274,170.363 170.363,170.363 C -76.274,170.363 0,94.089 0,0 Z" /></g><path
           id="path28"
           style="fill:#ffffff;fill-opacity:1;fill-rule:nonzero;stroke:none"
           d="M 525.003,399.431 H 417.049 v 66.323 h 107.954 z" /><g
           transform="translate(374.166,434.7959)"
           id="g30"><path
             id="path32"
             style="fill:none;stroke:#000000;stroke-width:25;stroke-linecap:butt;stroke-linejoin:miter;stroke-miterlimit:10;stroke-dasharray:none;stroke-opacity:1"
             d="M 0,0 H 37.558 253.634 V 102.458 H 491.058" /></g><g
           transform="translate(125.5039,495.8408)"
           id="g34"><path
             id="path36"
             style="fill:none;stroke:#ffffff;stroke-width:10;stroke-linecap:butt;stroke-linejoin:miter;stroke-miterlimit:10;stroke-dasharray:none;stroke-opacity:1"
             d="M 0,0 C 0,-98.573 79.622,-173.652 173.653,-173.652" /></g><path
           id="path38"
           style="fill:#ffffff;fill-opacity:1;fill-rule:nonzero;stroke:none"
           d="m 912.224,542.352 h -94 v 31.457 h 94 z" /><path
           id="path40"
           style="fill:#000000;fill-opacity:1;fill-rule:nonzero;stroke:none"
           d="m 815.084,483.866 h -28.388 v 28.388 h 28.388 z" /><path
           id="path42"
           style="fill:#000000;fill-opacity:1;fill-rule:nonzero;stroke:none"
           d="m 865.224,483.866 h -28.388 v 28.388 h 28.388 z" /><g
           transform="translate(453.3413,370.251)"
           id="g44"><path
             id="path46"
             style="fill:none;stroke:#000000;stroke-width:10;stroke-linecap:butt;stroke-linejoin:miter;stroke-miterlimit:10;stroke-dasharray:none;stroke-opacity:1"
             d="m 0,0 c -70.403,-84.254 -195.777,-95.482 -280.031,-25.079 -84.254,70.403 -95.482,195.777 -25.079,280.031" /></g><g
           transform="translate(604.3252,524.9604)"
           id="g48"><path
             id="path50"
             style="fill:#ffffff;fill-opacity:1;fill-rule:nonzero;stroke:none"
             d="M 0,0 -19.092,19.092 20.566,58.75 39.658,39.659 Z" /></g><g
           transform="translate(633.7002,388.96)"
           id="g52"><path
             id="path54"
             style="fill:#ffffff;fill-opacity:1;fill-rule:nonzero;stroke:none"
             d="M 0,0 -19.092,19.093 20.566,58.751 39.659,39.659 Z" /></g><g
           transform="translate(368.7446,434.7959)"
           id="g56"><path
             id="path58"
             style="fill:#ffffff;fill-opacity:1;fill-rule:nonzero;stroke:none"
             d="m 0,0 -9.428,9.428 20.27,20.27 9.429,-9.427 z" /></g><g
           transform="translate(368.7446,434.7959)"
           id="g60"><path
             id="path62"
             style="fill:#ffffff;fill-opacity:1;fill-rule:nonzero;stroke:none"
             d="m 0,0 -9.428,-9.429 20.27,-20.269 9.429,9.427 z" /></g></g></g></g></svg>